<?xml version="1.0" encoding="utf-8"?>
<!-- Generator: Adobe Illustrator 22.0.1, SVG Export Plug-In . SVG Version: 6.00 Build 0)  -->
<svg version="1.1" id="Warstwa_1" xmlns="http://www.w3.org/2000/svg" xmlns:xlink="http://www.w3.org/1999/xlink" x="0px" y="0px"
	 viewBox="0 0 1850.6 1328.7" style="enable-background:new 0 0 1850.6 1328.7;" xml:space="preserve">
<g style="fill:#ffffff">
	<path d="M889.6,871.4c-4-54.9-31.3-108.7-78.7-155.7c-0.2-0.2-0.5-0.5-0.9-0.9c-26.8-28.2-68.2-53.8-116.6-72
		c-72.1-27.2-125.5-27.3-151.1-27.3c0,0,0,0,0,0c0,0,0,0,0,0v0l-0.4,0c-1.2,0-2.7,0-7.4,0.2l-1.9,0.1c-3.7,0.1-8.3,0.3-11.5,0.7
		c-0.7,0.1-1.4,0.2-2.1,0.3V101.7h281.7c0,0,0.1,0,0.1,0c3.1,0,45.9-0.3,64.6-14.3c3.6-2.7,15.4-12.5,17.2-25.6
		c0.8-6.1-0.7-11.7-4.7-16.8c-6-7.7-15.2-9.9-21.9-10.4c-5.8-0.4-14.2,2.5-18.5,5.4c-8,5.5-11.8,15.5-11.3,19.2c0.2,1.4,1,1.9,1.5,2
		c1.4,0.5,2.7-0.9,3.1-1.3c0.7-0.8,1.3-1.7,1.8-2.6c1.5-2.5,3.3-5.6,9.8-8.4c5.4-2.3,11.8-1.1,13.7,0.1c3.9,2.6,6,5.7,6.4,9.2
		c0.7,6.3-4.5,12.1-5.5,13.2c-1.9,2-8.9,7.6-17.2,11.3c-6.1,2.7-24.9,5-39.2,6.1c-3.4,0.3-86,3.4-119.3,3.7
		c-1.3,0-128.2,2.4-158.7,2.7c-27.9,0.3-87.6-0.4-119.7-0.7c-6.6-0.1-11.9-0.1-15.4-0.2c-14.9-0.1-46-0.9-87.1-4.4
		c-9.2-0.8-68.5-6.1-69.1-6.1l-1.5-0.1v18.1h282.4v516.1c-57.3,9.4-108.4,42.7-128.9,84.7c-17.9,36.9-12.3,74.6,16,106.2
		c13.2,14.8,34,25.8,57,30.3c7.1,1.4,14.2,2.1,21,2.1c14.2,0,27.1-3,36.5-8.8c25.2-15.4,28.2-28.8,27.8-40.9
		c-0.3-7.6-3.3-14.2-8.6-19.2c0.6-1.7,0.9-3.6,0.9-5.5c0-8.9-6.4-16.3-14.9-17.9V623.6c1-0.1,1.9-0.3,2.9-0.4c3-0.4,7.6-0.5,11-0.7
		l1.9-0.1c4.6-0.2,6.1-0.2,7.2-0.2l0.9,0c16,0.1,70.5,2.4,136,27.2c49.2,18.6,91.9,45,117.2,72.4c23.4,25.3,63.5,78.1,69.7,147.9
		c4.4,48.9,3.5,107.7-63.1,187.4c-46.9,56.1-150.4,115-246,140.1c-132.3,34.6-183.2,43.5-260.3,56.9c-12.5,2.2-25.7,4.5-40,7
		c-24.7,4.4-189.9,30.1-213.7,30.1c0,0,0,0-0.1,0c0,0,0,0,0,0l0,6.7c0,0,0.1,0,0.1,0c25.1,0,200.5-25.9,224.6-30.2
		c14.3-2.5,27.5-4.8,40-7c77.2-13.5,128.3-22.4,260.8-57.1c101.9-26.7,212.6-96.5,260.9-148.6c68.8-74.3,64-139.7,60.8-182.9
		L889.6,871.4z M529.6,778.4c3.2,3.6,5,8.2,5.2,13.3c0.5,12-3.5,22-24.6,34.9c-25,15.3-78.8,8-105.9-22.3
		c-18.6-20.8-36.3-54.9-15-98.8c19.4-39.9,68.1-71.6,122.9-80.9v124.2c-8.4,1.6-14.9,9-14.9,17.9c0,10,8.2,18.2,18.2,18.2
		C521.3,785,526.3,782.4,529.6,778.4z"/>
	<path d="M1059.5,482.4c-2-3.2-16.9,0.4-19.8,1.2c-18.1,5.2-87.5,13.3-135,13.3c-16.5,0-29.8-0.8-38.3-3.2
		c-8.1-2.4-12.1-9.3-12.1-15.7c0.8-7.7,4-20.2,6-23.4l0.4-0.4l0.4-0.8l0.8-1.2c2-4.8-11.3-13.7-13.7-9.3c0,0.4-0.8,0.8-1.2,1.6
		l0.4,0.4l-0.8,0.4c-1.9,2.8-4.3,9.1-5.5,16.7c-15.3,12.3-44.6,28.3-63,31.3l2.8-6.4c1.6-4.8,2.8-10.5,2.8-16.5
		c0-9.3-2.8-18.9-11.3-26.6l-2-1.6c-3.2-3.2-8.1-5.2-11.7-5.6c-17.7-3.2-43.5,30.2-50.4,46.8c-2-20.6-2.4-46.4-2.4-72.6
		c0-52.8,1.6-106,6.4-120.1c1.2-2.4-1.2-6.4-4.4-8.9c-4-2.4-8.1-2.4-9.3-0.4c-5.2,14.5-7.3,62.1-7.3,110.1v12.9
		c0,21.5,0.5,42.7,1.2,60.9c-17.3,14.4-51,37.4-72.1,37.4c-4.4,0-8.5-1.2-11.7-3.6c-6-5.2,2-50.8,5.2-54c0.4-2-2-5.2-6.4-6.9
		c-4.8-1.2-8.9-0.8-9.3,1.2c-4.4,6.9-6.9,19.3-6.9,31.8c0,13.3,2.8,27,8.9,33.5c7.7,8.5,18.5,10.9,28.6,10.5
		c22.2-1,50-21.4,64.3-36.9l3,24.4c1.2,6.4,2,11.7,3.6,14.5c0,0.4,0,1.2,1.2,2.4c0,0.4,2.4,3.2,5.2,5.2c4,2,6,0.8,6.4,0.8
		c0.8-0.4,1.2-1.2,1.6-1.2c0.4-1.2,1.2-3.2,0.8-6l2.4-11.3l1.2-4l0.8,0.4c8.9,6,32.2,7.3,38.7,6l1.6-0.4h3.2
		c34.2-0.4,61.9-14.6,77.3-33.6c0.1,1.5,0.3,3.1,0.5,4.6c2.8,15.3,19.3,25.4,33.1,28.6c10.1,2,22.6,3.2,36.7,3.2
		c44.7,0,103.6-9.7,132.2-18.9C1045.8,492.1,1062.7,485.6,1059.5,482.4z M734.2,497.3c-4,0-8.1-0.8-12.1-2.4l-0.8-0.4
		c17.7-25.8,28.2-41.9,41.9-46.4h0.8l1.2,1.6c2.4,2.4,3.6,6.4,3.6,12.1C768.8,480.8,752.7,497.3,734.2,497.3z"/>
	<path d="M608.8,386.9l-0.8,6c-0.8,2-3.6,10.1-4.4,11.3c-2,1.6,0.4,5.2,5.2,6.9c3.6,2,8.5,2,9.7,0.4c1.2-2,4.4-10.9,5.2-12.9
		c1.2-2.4,1.2-5.2,1.2-6.9c0.8-2-2.4-5.2-7.7-6.4C613.2,383.7,608.8,384.5,608.8,386.9z"/>
	<path d="M877.7,392.9c-3.2-2.4-7.7-2.8-8.5-0.4l-2.4,5.6c-1.2,1.6-5.2,9.3-6.4,10.1c-2.4,1.2-0.8,5.2,3.2,8.1
		c3.2,2.8,8.1,4,9.7,2.8c1.6-1.6,3.2-4,4.8-6c1.6-2,5.2-10.1,5.6-11.7C884.9,399.4,882.5,395.3,877.7,392.9z"/>
	<path d="M1312.6,845.6c3.6,2,8.5,2,9.7,0.4c1.2-2,4.4-10.9,5.2-12.9c1.2-2.4,1.2-5.2,1.2-6.9c0.8-2-2.4-5.2-7.7-6.4
		c-4-1.6-8.5-0.8-8.5,1.6l-0.8,6c-0.8,2-3.6,10.1-4.4,11.3C1305.4,840.4,1307.8,844,1312.6,845.6z"/>
	<path d="M1804.9,885.1c-10.9,8.5-125,56.8-176.6,56.8c-19.3,0-38.3-8.5-39.5-29.4c22.6,1.6,40.7-14.9,39.5-29.4
		c-0.4-4.8-4-8.9-9.7-11.7c-4-1.6-7.7-2-11.7-2c-15.5,0-28.7,10.9-32.6,28.2c-16,10.9-44.5,33.9-65.8,33.9c-5.2,0-9.7-1.2-13.7-4.4
		c-5.2-7.7-0.8-23-0.8-29.8c0-6-7.3-13.3-14.9-14.1c-22.6-2.4-51.6,12.1-65.3,22.2l0.8-13.7c0.4-2.4-3.2-6-6.4-8.1
		c-4-1.6-8.1-1.2-8.1,1.6l-1.3,12.5c-16.4,14.2-52.4,39.5-74.5,39.5c-4.4,0-8.5-1.2-11.7-3.6c-6-5.2,2-50.8,5.2-54
		c0.4-2-2-5.2-6.4-6.9c-4.8-1.2-8.9-0.8-9.3,1.2c-4.2,6.5-6.6,18-6.8,29.9c-14.1,10.1-45.5,23.4-56.1,23.4c-5.6,0-10.5-2-14.9-4.8
		c-8.1-6.9-10.1-21.4-14.1-29.4c-2.8-4.4-10.5-8.5-13.3-6.4l-39.1,31.8c-3.6-14.1-4-22.6-8.5-33.1c-3.2-4.4-10.1-8.5-13.3-6.9
		c-17.3,8.5-31,24.6-45.1,39.9c-0.4-13.3,1.2-20.6,0.8-31c1.2-5.2-12.1-14.1-13.3-7.3c-0.6,3.9-1.2,8-1.6,12.3
		c-1.2-0.5-3.2-0.7-6-0.6c-3.6,0-19.3,1.6-38.3,1.6c-9.3,0-19.8-0.4-29.8-1.6c-6-7.3-14.9-12.5-25.8-14.1c-8.1-0.4-10.9,4-12.5,9.7
		c-0.8,0-1.2,0.4-2,0.4c-9.3,3.2-19.8,22.6-16.9,39.5c2,11.3,12.1,23.8,27,24.6c18.5,1.2,35.1-8.9,38.7-29c1.2-6,0.8-12.1-0.8-17.3
		c24.6,1.2,50.8-2.4,59.7-5.6c2.8-0.9,5-2,6.4-3.1c-0.5,5.7-0.8,11.7-0.8,18c0,5.6,0.4,11.7,0.8,17.7c1.2,4.8,11.7,12.9,14.9,10.1
		c15.7-13.7,27-35.1,47.6-48.4c3.6,15.7,6,25,10.1,33.9c2.4,4.4,10.1,8.5,13.3,6.9c10.9-7.3,21-15.3,39.1-30.2
		c1.2,3.6,3.2,8.1,6,12.1c3.6,4.8,7.7,9.7,13.7,13.7c8.9,5.6,18.5,8.1,27,8.1c17.5,0,36.9-11.5,47.8-21.8c1.1,9.4,3.8,17.9,8.2,22.6
		c7.7,8.5,18.5,10.9,28.6,10.5c22.4-1,50.5-21.7,64.6-37.2l-1.3,13c-0.8,4.8-0.4,8.9,0,12.1c0.4,6.4,14.5,10.1,14.1,4.8l0.4-9.3
		c7.7-16.9,38.3-36.3,68.1-39.5c-0.8,4.8-1.2,9.3-1.2,13.7c0,7.3,1.2,14.1,5.2,20.2c7.3,10.5,20.2,15.3,31.8,15.3
		c24.2,0,47-15.8,59.1-28.1c4.3,28.1,36.3,38.1,65.5,37.4c63.7-1.6,165.7-43.1,170.9-64.5C1810.9,884.3,1806.9,883.5,1804.9,885.1z
		 M1616.6,882.7c-1.6,8.5-18.1,22.6-27,19.3C1591.2,892,1599.7,880.7,1616.6,882.7z M973.6,941.6c-7.7,0.4-12.1-4-14.1-15.7
		c-2-11.3,5.6-25.4,10.9-29.4l0.8-0.8c5.6,3.6,13.3,6,22.6,7.7C1000.2,917.8,991.4,940.8,973.6,941.6z"/>
</g>
</svg>
