<?xml version="1.0" encoding="utf-8"?>
<!-- Generator: Adobe Illustrator 22.0.1, SVG Export Plug-In . SVG Version: 6.00 Build 0)  -->
<svg version="1.1" id="Warstwa_1" xmlns="http://www.w3.org/2000/svg" xmlns:xlink="http://www.w3.org/1999/xlink" x="0px" y="0px"
	 viewBox="0 0 785.9 145" style="enable-background:new 0 0 785.9 145;" xml:space="preserve">
<style type="text/css">
	.st0{enable-background:new    ;}
	.st1{fill:#FFFFFF;}
	.st2{opacity:0.99;enable-background:new    ;}
</style>
<g class="st0">
	<g>
		<path class="st1" d="M175.2,38.4c0.1,0.1,0,0.2,0,0.3c-0.8,0.8-2.1,1.6-3.9,2.2c-1.4,0.5-3.2,0.8-5.4,0.8c-1.8,0-3.3-0.2-4.3-0.5
			c-1.1-0.4-2.2-1.1-3.2-2.1c-1.7-1.7-2.6-4.2-2.6-7.6c0-1.9,0.5-3.8,1.5-5.7c0.8-1.5,2-2.8,3.6-3.9c2.1-1.4,4.8-2,8.1-2
			c1.2,0,2.4,0.1,3.4,0.2c1.2,0.1,2,0.3,2.3,0.5c0.1,0,0.1,0.1,0.1,0.2c0,0.2-0.1,0.6-0.2,1.3c-0.1,0.6-0.1,1.1-0.2,1.5
			c0,0.1-0.1,0.2-0.1,0.2c-0.1,0-0.1,0-0.2-0.1s-0.1-0.2-0.2-0.4s-0.5-0.6-1.3-1.1c-1.1-0.6-2.7-0.8-4.9-0.8c-2.8,0-5,0.9-6.6,2.6
			c-1.9,1.9-2.8,4.3-2.8,7.2c0,3.2,1,5.7,2.9,7.5c1,0.9,2,1.5,3,1.8c0.9,0.3,2.1,0.4,3.7,0.4c1.1,0,2.2-0.2,3.3-0.7
			c1.1-0.5,1.9-1.1,2.4-1.9c0.3-0.5,0.5-0.9,0.5-1.3c0-0.2,0-0.3,0.1-0.3c0,0,0.1,0,0.1,0.1c0.1,0.3,0.2,0.7,0.3,1
			C174.9,37.8,175.1,38.1,175.2,38.4z"/>
		<path class="st1" d="M224.3,41.3c0,0.1,0,0.2-0.1,0.2h-8.1c-0.1,0-0.2-0.1-0.2-0.2v-0.5c0-0.1,0.1-0.2,0.2-0.2h2.3
			c0.2,0,0.3-0.1,0.3-0.2c0-0.1,0.1-0.4,0.1-1c0-1.1,0-4,0-8.6c0-0.2-0.1-0.3-0.3-0.3h-11c-0.2,0-0.3,0.1-0.3,0.3c0,3.4,0,5.5,0,6.2
			c0.1,2.3,0.3,3.5,0.7,3.5h2.6c0.1,0,0.1,0.1,0.1,0.2v0.5c0,0.1,0,0.2-0.1,0.2h-8.1c-0.1,0-0.2-0.1-0.2-0.2v-0.5
			c0-0.1,0.1-0.2,0.2-0.2h2c0.3,0,0.4-0.1,0.4-0.2c0-0.1,0.1-0.4,0.1-1c0-0.2,0-1.6,0-4.3s0-4.1,0-4.4s0-1.4,0-3.4s0-3,0-3.2
			c0-2.1-0.2-3.2-0.5-3.2h-2.2c-0.1,0-0.2-0.1-0.2-0.2v-0.5c0-0.1,0.1-0.2,0.2-0.2h8c0.1,0,0.2,0.1,0.2,0.2v0.4
			c0,0.1-0.1,0.2-0.2,0.2h-2.3c-0.2,0-0.4,0-0.4,0.1c0,0-0.1,0.2-0.1,0.4c0,5.6,0,8.1,0,7.6c0,0.2,0.1,0.4,0.3,0.4h11
			c0.2,0,0.3-0.1,0.3-0.3c0-0.1,0-0.9,0-2.5c0-1.6,0-2.5,0-2.6c0-2-0.2-2.9-0.6-2.9h-2.4c-0.1,0-0.2-0.1-0.2-0.2v-0.5
			c0-0.1,0.1-0.2,0.2-0.2h8c0.1,0,0.2,0.1,0.2,0.2v0.4c0,0.1-0.1,0.2-0.2,0.2h-2.1c-0.3,0-0.5,0-0.5,0.1c-0.1,0.1-0.1,0.2-0.1,0.5
			v8.5c0,4.2,0,6.7,0,7.3c0.1,2.1,0.3,3.2,0.6,3.2h2.3c0.1,0,0.2,0.1,0.2,0.2V41.3z"/>
		<path class="st1" d="M271.4,30.4c0,3.3-0.8,5.9-2.4,7.7c-0.6,0.7-1,1.1-1.4,1.4c-0.8,0.6-1.8,1.1-3,1.6c-1,0.4-2.3,0.5-3.8,0.5
			c-2.5,0-4.4-0.3-5.6-1c-0.9-0.5-1.7-1-2.3-1.8c-0.8-0.9-1.3-1.8-1.7-2.9c-0.4-1.3-0.6-2.9-0.6-5c0-1.4,0.2-2.7,0.6-4
			c0.5-1.5,1.1-2.8,2.1-3.8c0.9-1,2.2-1.9,3.9-2.5c1.2-0.5,2.5-0.7,4-0.7c2.2,0,3.9,0.3,5.1,0.8c1.3,0.6,2.4,1.4,3.1,2.4
			C270.8,25.1,271.4,27.4,271.4,30.4z M268.9,31.2c0-1.5-0.2-2.8-0.5-3.9c-0.4-1.3-1-2.4-1.8-3.4c-0.8-0.9-1.7-1.5-2.8-2
			c-1.2-0.5-2.5-0.8-3.7-0.8c-1.6,0-2.8,0.3-3.5,0.8c-1.3,0.9-2.2,1.9-2.7,3c-0.6,1.5-1,3.2-1,5.4c0,3.1,0.6,5.6,1.7,7.3
			c0.7,1.1,1.7,2,3.1,2.6c1.1,0.5,2.3,0.8,3.6,0.8c1.5,0,2.8-0.4,4-1.2c1-0.6,1.8-1.7,2.5-3.2C268.6,35.2,268.9,33.4,268.9,31.2z
			 M263.9,15.2c-0.1,0.1-0.3,0.2-0.6,0.4c-1.5,0.8-3.1,1.7-5,2.6c-0.4,0.3-0.7,0.3-0.8,0.1c-0.1-0.2,0-0.4,0.2-0.6l3.5-2.7
			c0.2-0.1,0.3-0.2,0.5-0.2c0.5,0.1,1.2,0.1,2.1,0.1C264,15,264,15,263.9,15.2z"/>
		<path class="st1" d="M318.5,41.3c0,0.1,0,0.2-0.1,0.2h-5.1c-0.1,0-0.2-0.1-0.4-0.2c-0.4-0.3-1.1-1.2-2.2-2.6
			c-0.6-0.8-1.1-1.5-1.7-2.3c-0.6-0.9-1.5-2.4-2.6-4.4c-0.1-0.2-0.2-0.3-0.3-0.3c-0.5,0-1.4-0.1-2.6-0.2c-0.2-0.1-0.3,0-0.3,0.2
			c0,0.2,0,0.9,0,2c0,1.1,0,2.3,0,3.5c0,2.3,0.2,3.4,0.7,3.4h2.8c0.1,0,0.2,0.1,0.2,0.2v0.5c0,0.1,0,0.2-0.1,0.2h-8.3
			c-0.1,0-0.2,0-0.2,0c0,0,0-0.1,0-0.1v-0.5c0-0.1,0-0.1,0-0.2c0,0,0.1,0,0.1,0h2.1c0.2,0,0.3-0.2,0.3-0.5v-8.4v-6.5
			c0-2.9-0.2-4.3-0.5-4.3h-2c-0.1,0-0.2,0-0.2-0.1v-0.6c0-0.1,0-0.1,0.1-0.1h4.7c0.1,0,0.7,0,1.8-0.1c1,0,1.6-0.1,1.8-0.1
			c0.7,0,1.3,0.1,2,0.2c1.4,0.2,2.6,0.8,3.5,1.6c1,1,1.5,2.2,1.5,3.7c0,1.7-0.5,3.1-1.5,4.2c-0.6,0.7-1.6,1.2-3,1.7
			c-0.1,0-0.1,0.1-0.1,0.2c0.5,1.2,1.5,2.7,3.2,4.6c0.9,1,1.5,1.7,1.9,2.1c0.7,0.7,1.3,1.3,1.8,1.6c0.7,0.5,1.5,0.7,2.5,0.7
			c0.2,0,0.3,0,0.3,0.1V41.3z M310.9,26.3c0-1.4-0.5-2.5-1.4-3.4c-1.3-1.2-3.1-1.8-5.6-1.8c-0.4,0-0.5,0.1-0.6,0.2
			c0,3,0,4.9-0.1,5.6v3.6c0,0.1,0.1,0.2,0.2,0.2c0.2,0,0.9,0.1,2,0.1c0.4,0,1,0,1.5-0.1c0.6-0.1,0.8-0.1,0.8-0.1
			C309.8,30,310.9,28.6,310.9,26.3z"/>
	</g>
	<g>
		<path class="st1" d="M396.8,41.3c0,0.1-0.1,0.2-0.2,0.2h-4.4c-0.2,0-0.3-0.1-0.4-0.2c0,0-1-1.2-2.8-3.5c-1.2-1.5-2.3-2.8-3.5-3.9
			c-1.1-1.1-1.8-1.8-2.2-2.1c-0.2-0.1-0.3-0.1-0.4,0l-1.1,1c-0.1,0.1-0.1,0.3-0.1,0.3c0,0,0,0.7,0,2c0,1.3,0,2.1,0,2.3
			c0,2.2,0.1,3.3,0.4,3.3h2.6c0.1,0,0.1,0.1,0.1,0.2v0.5c0,0.1-0.1,0.2-0.2,0.2h-7.6c-0.2,0-0.2,0-0.2-0.1v-0.5c0-0.1,0-0.1,0-0.1
			c0,0,0.1,0,0.2,0h2c0.2,0,0.3-0.1,0.3-0.3c0,0,0-1.6,0-4.7s0-4.7,0-4.9s0-1.3,0-3.4c0-2.1,0-3.1,0-3.2c0-2.1-0.2-3.1-0.5-3.1h-2.3
			c-0.1,0-0.2-0.1-0.2-0.2v-0.5c0-0.1,0.1-0.1,0.2-0.1h7.6c0.1,0,0.1,0,0.1,0.1v0.5c0,0.1,0,0.2-0.1,0.2h-2.2
			c-0.1,0-0.2,0.1-0.2,0.2c-0.1,0.3-0.1,3.7-0.1,10.1c0,0.3,0.1,0.4,0.2,0.3c1.9-1.8,3.9-3.6,6-5.5c1-0.9,2-1.9,2.9-3
			c0.7-0.8,1-1.5,1-1.9c0-0.2-0.1-0.3-0.4-0.3h-2c-0.1,0-0.1-0.1-0.1-0.2v-0.5c0-0.1,0.1-0.1,0.2-0.1h6.5c0.1,0,0.2,0,0.2,0.1v0.5
			c0,0.1,0,0.2-0.1,0.2h-1.6c-0.3,0-0.5,0.1-0.8,0.4c-2,2.1-3.5,3.6-4.5,4.5c-0.7,0.6-2.1,1.9-4.1,4c-0.2,0.2-0.2,0.3-0.1,0.4
			c0.7,0.5,1.4,1.2,2.3,2.1c1.2,1.1,2.6,2.8,4.4,5c1.2,1.5,1.8,2.2,2,2.3c0.6,0.6,1.1,1,1.5,1h1.2c0.1,0,0.2,0.1,0.2,0.2V41.3z"/>
		<path class="st1" d="M442.2,41.3c0,0.1,0,0.2-0.1,0.2h-7.2c-0.1,0-0.2-0.1-0.2-0.2v-0.4c0-0.1,0.1-0.2,0.2-0.2h2.1
			c0.2,0,0.2-0.1,0.2-0.3c-0.1-0.3-0.5-1.4-1.1-3.3c-0.6-1.8-1-2.8-1-3c-0.1-0.2-0.2-0.3-0.3-0.3h-7.6c-0.1,0-0.2,0.1-0.2,0.2
			c-0.1,0.3-0.4,0.9-0.8,2c-0.4,1-0.6,1.7-0.7,2.1c-0.2,0.8-0.3,1.3-0.3,1.5c0,0.7,0.1,1,0.3,1h2.4c0.1,0,0.2,0.1,0.2,0.2v0.5
			c0,0.1-0.1,0.2-0.2,0.2h-6.3c-0.1,0-0.2-0.1-0.2-0.2v-0.5c0-0.1,0-0.2,0.1-0.2h1.3c0.2,0,0.5-0.5,0.9-1.5c0.4-1,1.6-3.8,3.5-8.5
			c1.2-3,2.7-6.5,4.5-10.7c0.1-0.3,0.2-0.5,0.3-0.5c0.3-0.1,0.7-0.2,1.1-0.4c0.1,0,0.2,0,0.3,0.2c0.1,0.1,0.1,0.3-0.1,0.5
			c-0.3,0.3-0.5,0.6-0.5,0.9c0,0.3,0.1,0.7,0.2,1.2c0.6,1.6,1.6,4.5,3.1,8.8c1.5,4.3,2.5,7.1,3.1,8.3c0.6,1.2,0.9,1.8,1.2,1.8h1.5
			c0.1,0,0.1,0.1,0.1,0.2V41.3z M434.4,32.4c-0.4-1.2-0.9-2.6-1.4-4.1c-0.5-1.5-1-3-1.5-4.6c0-0.1-0.1-0.2-0.1-0.3
			c0,0-0.1,0.1-0.2,0.3c-1.3,3.2-2.2,5.5-2.8,6.8c-0.6,1.3-0.9,2-0.9,2.1c0,0.1,0,0.1,0.1,0.1h6.6C434.5,32.6,434.5,32.5,434.4,32.4
			z"/>
		<path class="st1" d="M494.5,41.3c0,0.1-0.1,0.2-0.2,0.2h-7.2c-0.1,0-0.2-0.1-0.2-0.2v-0.5c0-0.1,0.1-0.2,0.2-0.2h1.7
			c0.3,0,0.4-0.1,0.4-0.4v-8c0-4.1,0-6.9-0.1-8.3c0-0.3-0.1-0.5-0.2-0.5c-0.1,0-0.1,0.1-0.2,0.3c-0.2,0.4-2.3,5.2-6.3,14.4
			c-0.6,1.4-1.1,2.5-1.4,3.5c-0.1,0.2-0.2,0.3-0.3,0.3c-0.1,0-0.2-0.1-0.3-0.2c-1.4-2.9-2.9-6-4.5-9.2c-0.9-1.9-2-4.3-3.6-7.4
			c-0.1-0.2-0.2-0.3-0.3-0.3c-0.1,0-0.1,0.1-0.1,0.3c-0.3,4.2-0.4,7.2-0.4,9.1v3.5c0,1.8,0.3,2.8,0.8,2.8h1.8c0.1,0,0.2,0,0.2,0.1
			v0.5c0,0.1,0,0.2-0.1,0.2h-5.7c-0.1,0-0.2,0-0.2-0.1v-0.5c0-0.1,0.1-0.2,0.2-0.2h1.6c0.3,0,0.4-0.2,0.4-0.7c0-1.6,0.1-4.6,0.2-9
			c0.1-0.8,0.1-1.6,0.1-2.5c0.1-1.6,0.1-3,0.1-4.2c0-1.5-0.5-2.5-1.6-3.1c-0.2-0.1-0.7-0.2-1.4-0.3c-0.1,0-0.1,0-0.1-0.1v-0.6
			c0-0.1,0-0.1,0.1-0.1h4.1c0.2,0,0.3,0.1,0.4,0.2c1,1.9,2,4,3.1,6.3c1.6,3.5,3.4,7.3,5.4,11.2c0.2,0.3,0.3,0.3,0.4,0.1
			c1.2-2.7,2.4-5.5,3.8-8.5c1.3-3,2.6-6,4-9.1c0.1-0.2,0.3-0.3,0.5-0.3h4c0.1,0,0.2,0,0.2,0.1v0.5c0,0.1,0,0.2-0.1,0.2h-1.5
			c-0.3,0-0.5,0.4-0.6,1.1c-0.1,0.7-0.1,3.3-0.1,7.9c0,3.4,0,5.8,0.1,7.2c0.1,2.3,0.4,3.5,0.9,3.5h1.8c0.1,0,0.1,0.1,0.1,0.2V41.3z"
			/>
		<path class="st1" d="M537.4,39.2c-0.3,0.6-0.6,1.3-1,2.1c-0.1,0.1-0.2,0.2-0.3,0.2h-14.8c-0.1,0-0.2-0.1-0.2-0.2v-0.5
			c0-0.1,0-0.2,0.1-0.2h2.3c0.2,0,0.3-0.1,0.3-0.3c0-0.1,0-1.7,0-4.8c0-3.1,0-4.7,0-4.8c0-0.1,0-1.2,0-3.2c0-2,0-3.1,0-3.3
			c0-2.1-0.2-3.2-0.6-3.2h-1.9c-0.1,0-0.2-0.1-0.2-0.2v-0.5c0-0.1,0.1-0.2,0.2-0.2h14c0.2,0,0.4,0,0.8,0c0.3,0,0.5,0,0.5,0
			c0.1,0,0.2,0.1,0.2,0.2c-0.1,0.6-0.3,1.2-0.5,2c-0.1,0.2-0.2,0.4-0.3,0.4l-0.2-0.2c-0.4-0.4-1-0.6-1.8-0.8
			c-1.2-0.2-3.6-0.3-7.4-0.4c-0.1,0-0.2,0.1-0.3,0.2c0,0.1-0.1,2.7-0.1,7.8c0,0.2,0.1,0.3,0.3,0.3h7.7c0.1,0,0.2-0.1,0.3-0.2
			c0-0.2,0.1-0.5,0.1-1c0.1-0.5,0.1-0.8,0.1-0.8c0-0.2,0.1-0.3,0.2-0.3h0.2c0.1,0,0.2,0.1,0.2,0.3c0,0,0,0.5-0.1,1.3
			c0,0.8-0.1,1.3-0.1,1.5s0,0.7,0,1.6c0,0.9,0,1.4,0,1.5c0,0.2-0.1,0.3-0.2,0.3h-0.3c-0.1,0-0.2-0.1-0.2-0.2c0-0.7-0.1-1.5-0.2-2.4
			c0-0.2-0.1-0.3-0.3-0.3c-0.1,0-1.4,0-3.9-0.1s-3.7-0.1-3.8-0.1c-0.1,0-0.2,0.1-0.2,0.3v5.9c0,2.5,0.3,3.8,0.8,3.8
			c4.9,0,8.1-0.4,9.7-1.1c0.4-0.2,0.6-0.3,0.7-0.4C537.4,39,537.4,39.1,537.4,39.2z"/>
		<path class="st1" d="M584.1,41.3c0,0.1,0,0.2-0.1,0.2h-5.1c-0.1,0-0.2-0.1-0.4-0.2c-0.4-0.3-1.1-1.2-2.2-2.6
			c-0.6-0.8-1.1-1.5-1.7-2.3c-0.6-0.9-1.5-2.4-2.6-4.4c-0.1-0.2-0.2-0.3-0.3-0.3c-0.5,0-1.4-0.1-2.6-0.2c-0.2-0.1-0.3,0-0.3,0.2
			c0,0.2,0,0.9,0,2c0,1.1,0,2.3,0,3.5c0,2.3,0.2,3.4,0.7,3.4h2.8c0.1,0,0.2,0.1,0.2,0.2v0.5c0,0.1,0,0.2-0.1,0.2h-8.3
			c-0.1,0-0.2,0-0.2,0c0,0,0-0.1,0-0.1v-0.5c0-0.1,0-0.1,0-0.2s0.1,0,0.1,0h2.1c0.2,0,0.3-0.2,0.3-0.5v-8.4v-6.5
			c0-2.9-0.2-4.3-0.5-4.3h-2c-0.1,0-0.2,0-0.2-0.1v-0.6c0-0.1,0-0.1,0.1-0.1h4.7c0.1,0,0.7,0,1.8-0.1c1,0,1.6-0.1,1.8-0.1
			c0.7,0,1.3,0.1,2,0.2c1.4,0.2,2.6,0.8,3.5,1.6c1,1,1.5,2.2,1.5,3.7c0,1.7-0.5,3.1-1.5,4.2c-0.6,0.7-1.6,1.2-3,1.7
			c-0.1,0-0.1,0.1-0.1,0.2c0.5,1.2,1.5,2.7,3.2,4.6c0.9,1,1.5,1.7,1.9,2.1c0.7,0.7,1.3,1.3,1.8,1.6c0.7,0.5,1.5,0.7,2.5,0.7
			c0.2,0,0.3,0,0.3,0.1V41.3z M576.5,26.3c0-1.4-0.5-2.5-1.4-3.4c-1.3-1.2-3.1-1.8-5.6-1.8c-0.4,0-0.5,0.1-0.6,0.2
			c0,3,0,4.9-0.1,5.6v3.6c0,0.1,0.1,0.2,0.2,0.2c0.2,0,0.9,0.1,2,0.1c0.4,0,1,0,1.5-0.1c0.6-0.1,0.8-0.1,0.8-0.1
			C575.4,30,576.5,28.6,576.5,26.3z"/>
		<path class="st1" d="M629.2,41.3c0,0.1,0,0.2-0.1,0.2h-7.2c-0.1,0-0.2-0.1-0.2-0.2v-0.4c0-0.1,0.1-0.2,0.2-0.2h2.1
			c0.2,0,0.2-0.1,0.2-0.3c-0.1-0.3-0.5-1.4-1.1-3.3c-0.6-1.8-1-2.8-1-3c-0.1-0.2-0.2-0.3-0.3-0.3h-7.6c-0.1,0-0.2,0.1-0.2,0.2
			c-0.1,0.3-0.4,0.9-0.8,2c-0.4,1-0.6,1.7-0.7,2.1c-0.2,0.8-0.3,1.3-0.3,1.5c0,0.7,0.1,1,0.3,1h2.4c0.1,0,0.2,0.1,0.2,0.2v0.5
			c0,0.1-0.1,0.2-0.2,0.2h-6.3c-0.1,0-0.2-0.1-0.2-0.2v-0.5c0-0.1,0-0.2,0.1-0.2h1.3c0.2,0,0.5-0.5,0.9-1.5c0.4-1,1.6-3.8,3.5-8.5
			c1.2-3,2.7-6.5,4.5-10.7c0.1-0.3,0.2-0.5,0.3-0.5c0.3-0.1,0.7-0.2,1.1-0.4c0.1,0,0.2,0,0.3,0.2c0.1,0.1,0.1,0.3-0.1,0.5
			c-0.3,0.3-0.5,0.6-0.5,0.9c0,0.3,0.1,0.7,0.2,1.2c0.6,1.6,1.6,4.5,3.1,8.8c1.5,4.3,2.5,7.1,3.1,8.3c0.6,1.2,0.9,1.8,1.2,1.8h1.5
			c0.1,0,0.1,0.1,0.1,0.2V41.3z M621.5,32.4c-0.4-1.2-0.9-2.6-1.4-4.1c-0.5-1.5-1-3-1.5-4.6c0-0.1-0.1-0.2-0.1-0.3
			c0,0-0.1,0.1-0.2,0.3c-1.3,3.2-2.2,5.5-2.8,6.8c-0.6,1.3-0.9,2-0.9,2.1c0,0.1,0,0.1,0.1,0.1h6.6C621.5,32.6,621.5,32.5,621.5,32.4
			z"/>
		<path class="st1" d="M671.2,39.3c0,0.1-0.2,0.4-0.5,1c-0.1,0.2-0.3,0.6-0.5,1c-0.1,0.1-0.2,0.2-0.3,0.2H655
			c-0.1,0-0.2-0.1-0.2-0.2v-0.5c0-0.1,0.1-0.2,0.2-0.2h2.3c0.2,0,0.3-0.1,0.3-0.3c0-0.1,0-0.7,0-1.9c0-1.2,0-3.8,0-7.8
			s0.1-6.1,0.1-6.3c0-2.2-0.2-3.3-0.6-3.3h-1.8c-0.1,0-0.2-0.1-0.2-0.2v-0.5c0-0.1,0.1-0.2,0.2-0.2h8.5c0.1,0,0.2,0,0.2,0.1v0.5
			c0,0.1,0,0.2-0.1,0.2h-3.1c-0.2,0-0.3,0.1-0.3,0.2c0,0.1-0.1,2.7-0.2,7.6c-0.1,4.7-0.1,7.3-0.1,8c0,2.4,0.3,3.6,0.8,3.6
			c3.4,0,5.3,0,5.8-0.1c1.6-0.1,2.9-0.5,3.9-1.1c0.3-0.2,0.4-0.2,0.5-0.2C671.2,39.1,671.2,39.2,671.2,39.3z"/>
		<path class="st1" d="M718.8,20.8c0,0.1-0.1,0.2-0.2,0.2h-2.2c-0.2,0-0.3,0.1-0.3,0.4c0,0.1,0,1.5,0,4.3c0,2.8,0,4.3,0,4.5
			s0,2.1-0.1,5.6c0,3.5-0.1,5.4-0.1,5.5c0,0.5-0.1,0.7-0.2,0.7c-0.1,0-0.3-0.1-0.4-0.2c-0.9-1.3-3.8-4.9-8.4-10.8
			c-1.7-2.2-3.6-4.7-5.9-7.4c-0.1-0.1-0.2-0.1-0.3,0.1c0,0.1-0.1,2-0.2,5.7c-0.1,3.7-0.2,6.1-0.2,7c0,2.8,0.3,4.2,0.8,4.2h2.1
			c0.1,0,0.2,0,0.2,0.1v0.6c0,0.1,0,0.1-0.1,0.1h-6.2c-0.1,0-0.2,0-0.2-0.1v-0.6c0-0.1,0.1-0.2,0.2-0.2h1.9c0.2,0,0.3-0.1,0.3-0.2
			v-2.3c0-0.6,0.1-3.1,0.2-7.5s0.2-6.6,0.2-6.7c0-1.9-0.7-2.9-2-2.9h-1.1c-0.1,0-0.1-0.1-0.1-0.2v-0.5c0-0.1,0.1-0.2,0.2-0.2h4.9
			c0.1,0,0.3,0.1,0.3,0.3s1,1.3,2.6,3.5c1.6,2.2,2.6,3.4,2.8,3.7c2.3,3.1,4.8,6.3,7.4,9.6c0,0,0.1,0,0.1,0c0.1,0,0.1-0.1,0.1-0.4
			c0-0.2,0-2,0-5.5c0-3.5,0-5.4,0-5.7c-0.2-3.1-0.5-4.6-1.1-4.6h-2.1c-0.1,0-0.2-0.1-0.2-0.2v-0.5c0-0.1,0.1-0.2,0.2-0.2h6.8
			c0.1,0,0.2,0,0.2,0.1V20.8z"/>
		<path class="st1" d="M762.2,20.9c0,0.1,0,0.1-0.1,0.1H761c-0.3,0-0.6,0.2-0.9,0.7c-0.7,1.2-1.6,2.7-2.7,4.5c-1,1.6-2.1,3.3-3.1,5
			c-0.1,0.2-0.2,0.4-0.2,0.5c0,0,0,1,0,2.9c0,1.9,0,2.9,0,3.1c0,2,0.2,2.9,0.6,2.9h2.7c0.1,0,0.1,0,0.1,0c0,0,0,0.1,0,0.2v0.5
			c0,0.1,0,0.1-0.1,0.1H749c-0.1,0-0.2-0.1-0.2-0.2v-0.4c0-0.1,0.1-0.2,0.2-0.2h2.6c0.2,0,0.3-0.1,0.3-0.4l0-8.4
			c0-0.3-0.1-0.5-0.2-0.7c-0.2-0.2-1.1-1.8-2.9-4.7c-0.8-1.3-1.8-2.9-3.1-4.8c-0.4-0.4-0.8-0.7-1.3-0.7h-0.6c-0.1,0-0.2,0-0.2,0
			c0,0,0-0.1,0-0.1v-0.5c0-0.1,0.1-0.2,0.2-0.2h7c0.1,0,0.2,0.1,0.2,0.2v0.5c0,0.1,0,0.2-0.1,0.2h-1.8c-0.3,0-0.4,0.1-0.4,0.3
			c0,0.2,0.1,0.4,0.2,0.6c0.6,1.1,1.4,2.4,2.3,3.9c1.3,2.2,2.1,3.6,2.5,4.2c0.1,0.2,0.2,0.2,0.3,0.1c0.4-0.5,1-1.5,1.9-2.9
			s1.5-2.6,1.7-3.2c0.5-1,0.7-1.9,0.7-2.6c0-0.3-0.1-0.4-0.4-0.4h-1.4c-0.1,0-0.1,0-0.1-0.1v-0.5c0-0.1,0-0.2,0.1-0.2h5.5
			c0.1,0,0.1,0,0.1,0.1V20.9z"/>
	</g>
	<g class="st2">
		<g>
			<rect x="16.1" y="66.8" class="st1" width="115.8" height="1.2"/>
		</g>
	</g>
	<g class="st2">
		<g>
			<rect x="16.1" y="90.6" class="st1" width="115.9" height="1.2"/>
		</g>
	</g>
	<g class="st2">
		<g>
			<rect x="16.1" y="84.6" class="st1" width="117" height="1.2"/>
		</g>
	</g>
	<g class="st2">
		<g>
			<rect x="16.1" y="78.7" class="st1" width="117" height="1.2"/>
		</g>
	</g>
	<g class="st2">
		<g>
			<rect x="16.1" y="72.7" class="st1" width="116.8" height="1.2"/>
		</g>
	</g>
	<g>
		<path class="st1" d="M213.7,69c-0.3,2.1-0.8,4.5-1.6,7.3c-0.1,0.5-0.3,0.7-0.6,0.7c-0.3,0-0.7-0.3-1-0.8c-0.8-1.5-2.1-2.5-4-2.9
			c-3.3-0.7-9.3-1.1-17.8-1.1c-0.5,0-0.8,0.2-0.9,0.7c0,0.4-0.1,8.2-0.3,23.4c-0.2,14.5-0.3,22.3-0.3,23.3c0,9.5,0.8,14.3,2.5,14.3
			h8.6c0.2,0,0.4,0.1,0.4,0.4v1.8c0,0.3-0.1,0.5-0.4,0.5h-27.6c-0.4,0-0.6-0.2-0.6-0.5v-1.7c0-0.3,0.2-0.5,0.6-0.5h8.1
			c0.6,0,1-0.4,1-1.3c-0.1-7-0.2-10.9-0.2-11.5c0-0.6,0.1-6.2,0.3-16.9c0.2-10.7,0.3-16.3,0.3-16.8c0-10.1-0.6-15.1-1.8-15.1
			c-8.6,0-14.7,0.5-18.2,1.5c-2.6,0.7-4.2,1.6-5,2.8c-0.4,0.6-0.7,0.9-1,0.9c-0.4,0-0.7-0.1-0.7-0.4c0-0.4,0.1-0.8,0.4-1.3
			c0.9-3.4,1.7-5.9,2.3-7.5c0.1-0.4,0.5-0.6,1.1-0.5c0.7,0.1,4.1,0.3,10.3,0.6c7.2,0.3,13,0.5,17.5,0.5c14.3,0,22.4,0,24.4-0.1
			c0.9,0,1.7-0.1,2.5-0.2c0.8-0.1,1.2-0.2,1.1-0.2C213.5,68.2,213.7,68.5,213.7,69z"/>
		<path class="st1" d="M245.4,136.1c0,0.3-0.1,0.4-0.3,0.4h-24.3c-0.3,0-0.5-0.1-0.6-0.2c-0.1-0.1-0.1-0.2-0.1-0.4v-1.6
			c0-0.3,0-0.5,0.2-0.5c0.1,0,0.2-0.1,0.4-0.1h6.8c0.5,0,0.7-0.5,0.7-1.5l-0.1-51.8c0-6.3-0.6-9.5-1.8-9.5H220
			c-0.5,0-0.7-0.2-0.7-0.5v-1.8c0-0.3,0.2-0.4,0.5-0.4h24.3c0.3,0,0.5,0.1,0.5,0.4v1.9c0,0.3-0.2,0.4-0.6,0.4h-7.1
			c-0.6,0-0.9,0.4-0.9,1.1c-0.1,30.3-0.1,46-0.1,47c0,4.9,0,7.8,0,8.5c0.2,4.1,0.9,6.2,2,6.2h7.1c0.3,0,0.4,0.1,0.4,0.4V136.1z"/>
		<path class="st1" d="M301.7,118.7c0,5.2-1.9,9.5-5.7,12.8c-4.2,3.7-10,5.5-17.3,5.5c-0.8,0-3.4-0.1-7.8-0.3
			c-4.4-0.2-7.6-0.3-9.7-0.3h-7.7c-0.3,0-0.4-0.1-0.4-0.4v-1.8c0-0.3,0.1-0.5,0.4-0.5h7c0.8,0,1.3-0.6,1.3-1.8
			c0-0.4-0.1-5.4-0.2-15.1c-0.1-9.7-0.2-15-0.2-15.9V80.9c-0.3-6.2-1-9.3-2-9.3h-7.6c-0.3,0-0.4-0.2-0.4-0.6v-1.6
			c0-0.3,0.2-0.5,0.5-0.5h15c0.5,0,2.3,0,5.4-0.2c3.1-0.1,5-0.2,5.5-0.2h4.9c1.6,0.1,3.7,0.5,6.5,1.2c2.6,1,4.7,2.6,6.5,4.7
			c2.1,2.5,3.1,5.5,3.1,9.1c0,2.7-0.5,5-1.4,6.9c-0.4,0.8-1.3,2.1-2.7,3.9c-1.8,2.4-4.4,4.5-7.7,6.3c-0.7,0.4-0.7,0.7-0.1,0.9
			c3.7,1.1,7.1,3,10,5.7C300.1,110,301.7,113.9,301.7,118.7z M291,87.5c0-4.3-1.5-8.1-4.6-11.2c-3-3.1-7.1-4.7-12.2-4.7
			c-2.3,0-3.7,0.1-4.4,0.3c-0.5,0.1-0.8,0.5-0.9,1c-0.1,0.6-0.1,9.3-0.1,26c0,0.6,0.2,1,0.6,1c-0.1,0,0.6,0,2,0s2.9,0,4.3,0
			c0.6,0,1.9,0.1,3.9,0.3c2.3,0.2,3.5,0.4,3.6,0.4c0.3,0,0.7-0.1,1.3-0.4c1.9-1,3.5-2.6,4.6-4.8C290.4,92.7,291,90.2,291,87.5z
			 M293.2,120c0-4.6-1.5-8.5-4.6-11.6c-4.3-4.3-10.1-6.5-17.3-6.5c-0.9,0-1.5,0.1-1.9,0.3c-0.2,0.1-0.4,0.4-0.4,1v22
			c0.2,5.1,0.7,7.9,1.7,8.3c1.8,0.7,4.5,1.1,8,1.1c4.4,0,7.8-1.1,10.2-3.3C291.8,128.8,293.2,125,293.2,120z"/>
		<path class="st1" d="M336.3,136.1c0,0.3-0.1,0.4-0.3,0.4h-24.3c-0.3,0-0.5-0.1-0.6-0.2c-0.1-0.1-0.1-0.2-0.1-0.4v-1.6
			c0-0.3,0-0.5,0.2-0.5c0.1,0,0.2-0.1,0.4-0.1h6.8c0.5,0,0.7-0.5,0.7-1.5L319,80.6c0-6.3-0.6-9.5-1.8-9.5h-6.4
			c-0.5,0-0.7-0.2-0.7-0.5v-1.8c0-0.3,0.2-0.4,0.5-0.4h24.3c0.3,0,0.5,0.1,0.5,0.4v1.9c0,0.3-0.2,0.4-0.6,0.4h-7.1
			c-0.6,0-0.9,0.4-0.9,1.1c-0.1,30.3-0.1,46-0.1,47c0,4.9,0,7.8,0,8.5c0.2,4.1,0.9,6.2,2,6.2h7.1c0.3,0,0.4,0.1,0.4,0.4V136.1z"/>
		<path class="st1" d="M427.9,101.9c0,13.9-4.6,23.9-13.9,30.1c-3.3,2.2-7.2,3.7-11.5,4.4c-2.5,0.4-6.4,0.6-11.5,0.6
			c-2.4,0-5.5-0.1-9.2-0.3c-3.8-0.2-6.9-0.3-9.4-0.3h-5.6c-0.3,0-0.5-0.2-0.5-0.5c0-0.1,0-0.3-0.1-0.7c0-0.4-0.1-0.7-0.1-0.9
			c0-0.3,0.2-0.5,0.6-0.5h7c0.5,0,0.8-0.5,0.8-1.6c0-0.5-0.1-4.9-0.2-13.2s-0.2-12.8-0.2-13.6l0.1-12.3c0.1-7.3,0.1-11.3,0-12
			c-0.2-6.8-0.8-10.2-1.9-10.2h-7.1c-0.4,0-0.6-0.2-0.6-0.5v-1.7c0-0.3,0.2-0.5,0.7-0.5h31c5.1,0,9.2,0.7,12.2,2
			c2,0.9,3.5,1.6,4.4,2.2c2.1,1.2,4.2,2.8,6.2,4.8C425,82.9,427.9,91.1,427.9,101.9z M420.9,108.7c0-10.1-2.6-18.3-7.8-24.9
			c-3.7-4.6-7.7-7.8-12.1-9.5c-4.6-1.8-9.1-2.8-13.5-2.8c-1.9,0-3.2,0.1-3.9,0.3c-0.7,0.2-1.1,0.8-1.1,2c0,0.5,0,4.6-0.1,12.4
			c0,7.8,0,12.1,0,13.2v20.3c0,8.7,0.5,13.1,1.6,13.3c2.6,0.5,7.1,0.8,13.5,0.8c7,0,12.4-1.8,16.2-5.5
			C418.5,123.6,420.9,117.1,420.9,108.7z"/>
		<path class="st1" d="M502.1,101c0,10.6-2.5,18.8-7.6,24.8c-1.8,2.1-3.2,3.6-4.4,4.6c-2.4,1.9-5.6,3.6-9.5,5.1
			c-3.1,1.2-7.2,1.8-12.2,1.8c-8,0-14-1-18-3.1c-2.9-1.5-5.4-3.4-7.4-5.7c-2.5-2.8-4.2-5.9-5.3-9.3c-1.3-4-2-9.4-2-16
			c0-4.5,0.6-8.8,1.9-12.8c1.5-4.8,3.7-8.8,6.6-12.1c2.9-3.3,7.1-6,12.5-8.1c3.8-1.5,8.1-2.3,12.8-2.3c7.2,0,12.6,0.9,16.4,2.6
			c4.2,1.9,7.6,4.5,10,7.8C500,84,502.1,91.6,502.1,101z M494.2,103.7c0-4.8-0.6-9-1.7-12.6c-1.2-4.2-3.2-7.8-5.9-10.9
			c-2.5-2.8-5.4-4.9-8.8-6.4c-3.9-1.6-7.9-2.5-11.8-2.5c-5.1,0-8.8,0.8-11.1,2.5c-4.1,2.9-7,6.2-8.5,9.7c-2.1,4.7-3.1,10.4-3.1,17.1
			c0,10,1.9,17.8,5.6,23.5c2.2,3.5,5.6,6.2,10.1,8.3c3.5,1.6,7.3,2.5,11.5,2.5c4.7,0,9-1.3,12.9-3.9c3.1-2,5.7-5.4,7.9-10.3
			C493.2,116.3,494.2,110.6,494.2,103.7z"/>
		<path class="st1" d="M595.4,136c0,0.3-0.2,0.5-0.5,0.5H572c-0.5,0-0.7-0.2-0.7-0.5v-1.7c0-0.3,0.2-0.5,0.5-0.5h5.4
			c0.8,0,1.3-0.4,1.3-1.3v-25.7c0-13.2-0.1-22-0.4-26.5c-0.1-1-0.2-1.5-0.5-1.5c-0.2,0-0.5,0.3-0.8,1c-0.7,1.4-7.5,16.8-20.3,46.1
			c-1.9,4.3-3.5,8-4.6,11.1c-0.3,0.6-0.6,0.9-0.9,0.9c-0.5,0-0.8-0.3-0.9-0.8c-4.6-9.4-9.4-19.2-14.3-29.3
			c-2.7-5.9-6.5-13.8-11.4-23.6c-0.3-0.6-0.6-0.9-0.8-0.9c-0.3,0-0.4,0.4-0.5,1.1c-0.9,13.3-1.4,23.1-1.4,29.2V125
			c0,5.9,0.8,8.8,2.4,8.8h5.9c0.4,0,0.6,0.1,0.6,0.4v1.8c0,0.3-0.1,0.5-0.4,0.5h-18.1c-0.4,0-0.6-0.1-0.6-0.4v-1.6
			c0-0.5,0.2-0.7,0.5-0.7h5.2c0.9,0,1.4-0.8,1.4-2.3c0-5.2,0.2-14.8,0.7-28.7c0.2-2.6,0.3-5.2,0.5-7.9c0.3-5.2,0.4-9.6,0.4-13.4
			c0-4.9-1.7-8.2-5.1-9.8c-0.7-0.4-2.2-0.7-4.5-0.9c-0.3,0-0.4-0.1-0.4-0.4v-1.9c0-0.3,0.1-0.4,0.4-0.4H524c0.6,0,1,0.2,1.3,0.7
			c3.1,6.1,6.5,12.8,10.1,20c5.3,11.4,11,23.3,17.1,35.9c0.6,0.8,1,1,1.3,0.4c3.7-8.5,7.8-17.6,12-27.1c4.1-9.6,8.4-19.2,12.7-29
			c0.3-0.6,0.9-1,1.6-1h12.8c0.3,0,0.5,0.1,0.5,0.4v1.8c0,0.3-0.1,0.5-0.3,0.5h-5c-1,0-1.6,1.1-1.8,3.4c-0.2,2.1-0.4,10.5-0.4,25.2
			c0,10.8,0.1,18.5,0.4,23.1c0.3,7.5,1.3,11.2,3,11.2h5.8c0.3,0,0.4,0.2,0.4,0.5V136z"/>
		<path class="st1" d="M629.1,136.1c0,0.3-0.1,0.4-0.3,0.4h-24.3c-0.3,0-0.5-0.1-0.6-0.2c-0.1-0.1-0.1-0.2-0.1-0.4v-1.6
			c0-0.3,0.1-0.5,0.2-0.5c0.1,0,0.2-0.1,0.4-0.1h6.8c0.5,0,0.7-0.5,0.7-1.5l-0.1-51.8c0-6.3-0.6-9.5-1.8-9.5h-6.4
			c-0.5,0-0.7-0.2-0.7-0.5v-1.8c0-0.3,0.2-0.4,0.5-0.4h24.3c0.3,0,0.5,0.1,0.5,0.4v1.9c0,0.3-0.2,0.4-0.6,0.4h-7.1
			c-0.6,0-0.9,0.4-0.9,1.1c-0.1,30.3-0.1,46-0.1,47c0,4.9,0,7.8,0,8.5c0.2,4.1,0.9,6.2,2,6.2h7.1c0.3,0,0.4,0.1,0.4,0.4V136.1z"/>
		<path class="st1" d="M707.7,70.4c0,0.4-0.2,0.6-0.5,0.6h-7c-0.7,0-1.1,0.5-1.1,1.4c0,0.3,0,4.8-0.1,13.7
			c-0.1,8.8-0.1,13.6-0.1,14.3s-0.1,6.7-0.2,17.9s-0.2,17.1-0.2,17.7c0,1.6-0.2,2.4-0.6,2.4c-0.5,0-0.9-0.2-1.2-0.6
			c-3-4.1-12-15.7-27-34.7c-5.3-7.1-11.6-15.1-18.7-23.8c-0.5-0.4-0.8-0.3-1,0.4c-0.1,0.4-0.4,6.6-0.8,18.4
			c-0.4,12-0.6,19.5-0.6,22.5c0,8.9,0.9,13.3,2.7,13.3h6.7c0.3,0,0.5,0.1,0.5,0.4v1.9c0,0.3-0.1,0.4-0.4,0.4h-19.7
			c-0.4,0-0.7-0.1-0.7-0.3v-1.9c0-0.3,0.2-0.5,0.7-0.5h6.2c0.5,0,0.8-0.3,0.8-0.8v-7.4c0-2,0.2-10,0.7-24c0.5-14,0.7-21.2,0.7-21.5
			c0-6.2-2.1-9.3-6.4-9.3H637c-0.3,0-0.4-0.2-0.4-0.5v-1.7c0-0.3,0.2-0.5,0.5-0.5H653c0.4,0,0.8,0.3,1.1,0.8
			c0.3,0.5,3.1,4.3,8.3,11.3c5.2,7,8.2,10.9,8.8,11.7c7.5,10,15.4,20.2,23.8,30.8c0.1,0.1,0.3,0.2,0.4,0.2c0.2,0,0.4-0.5,0.5-1.4
			c0-0.6,0-6.5,0-17.7c0-11.2-0.1-17.3-0.1-18.2c-0.5-9.9-1.7-14.8-3.6-14.8h-6.9c-0.4,0-0.7-0.2-0.7-0.5v-1.7
			c0-0.3,0.2-0.5,0.6-0.5h21.9c0.4,0,0.6,0.1,0.6,0.4V70.4z"/>
		<path class="st1" d="M765.4,129.3c-0.9,1.9-2.1,4.1-3.4,6.6c-0.3,0.4-0.6,0.6-1.1,0.6h-47.4c-0.3,0-0.5-0.2-0.5-0.6v-1.6
			c0-0.3,0.1-0.5,0.4-0.5h7.4c0.7,0,1-0.4,1-1.1c0-0.3,0-5.4-0.1-15.4c-0.1-10-0.1-15.1-0.1-15.4c0-0.3,0-3.8,0-10.3
			c0-6.6,0-10,0-10.5c0-6.8-0.7-10.2-2-10.2h-6.1c-0.3,0-0.5-0.2-0.5-0.5v-1.7c0-0.3,0.2-0.5,0.6-0.5h44.9c0.6,0,1.4,0,2.4-0.1
			c1-0.1,1.5-0.1,1.5-0.1c0.4,0,0.6,0.2,0.5,0.5c-0.5,1.8-1.1,4-1.8,6.4c-0.3,0.8-0.5,1.2-0.8,1.2l-0.7-0.8
			c-1.2-1.2-3.2-2.1-5.9-2.6c-3.7-0.7-11.7-1.1-23.8-1.2c-0.4,0-0.7,0.2-0.8,0.6c-0.1,0.4-0.2,8.7-0.2,24.9c0,0.7,0.3,1,0.9,1h24.5
			c0.5,0,0.7-0.3,0.8-0.8c0.1-0.5,0.2-1.6,0.4-3.2c0.2-1.6,0.3-2.5,0.3-2.7c0-0.6,0.2-1,0.6-1h0.8c0.4,0,0.6,0.3,0.6,0.9
			c0,0.1-0.1,1.5-0.2,4.2c-0.1,2.7-0.2,4.2-0.2,4.7s0,2.3,0.1,5.3c0.1,3,0.1,4.6,0.1,4.8c0,0.7-0.2,1.1-0.6,1.1h-0.8
			c-0.3,0-0.5-0.2-0.6-0.7c-0.1-2.1-0.3-4.7-0.5-7.6c-0.1-0.7-0.4-1-1-1c-0.3,0-4.4-0.1-12.4-0.2c-7.9-0.1-12-0.2-12.2-0.2
			c-0.4,0-0.7,0.3-0.7,0.9v18.9c0,8,0.9,12,2.6,12c15.6,0,26-1.2,31.2-3.6c1.2-0.7,2-1.1,2.3-1.3
			C765.4,128.7,765.5,128.9,765.4,129.3z"/>
	</g>
	<g class="st2">
		<g>
			<rect x="60.8" y="18.9" class="st1" width="6" height="118.2"/>
		</g>
	</g>
	<g class="st2">
		<g>
			<path class="st1" d="M61,136.9v0.2h1.9C62.3,137.1,61.6,137,61,136.9z M16.3,18v18.5c12.7-10.3,29.5-16.1,47.1-16.4
				c18.5,0,36.2,6.2,49.2,17.2c13.1,11,20.4,25.9,20.4,41.4c0,15.4-7.3,30.3-20.3,41.2S82.3,137,63.9,137.1h71.6V18H16.3z"/>
		</g>
	</g>
</g>
</svg>
