<?xml version="1.0" encoding="utf-8"?>
<!-- Generator: Adobe Illustrator 22.0.1, SVG Export Plug-In . SVG Version: 6.00 Build 0)  -->
<svg version="1.1" id="Warstwa_1" xmlns="http://www.w3.org/2000/svg" xmlns:xlink="http://www.w3.org/1999/xlink" x="0px" y="0px"
	 viewBox="0 0 145 145" style="enable-background:new 0 0 145 145;" xml:space="preserve">
<style type="text/css">
	.st0{enable-background:new    ;}
	.st1{fill:#FFFFFF;}
	.st2{opacity:0.99;enable-background:new    ;}
</style>
<g class="st0">
	<g class="st2">
		<g>
			<rect x="16.1" y="66.8" class="st1" width="115.8" height="1.2"/>
		</g>
	</g>
	<g class="st2">
		<g>
			<rect x="16.1" y="90.6" class="st1" width="115.9" height="1.2"/>
		</g>
	</g>
	<g class="st2">
		<g>
			<rect x="16.1" y="84.6" class="st1" width="117" height="1.2"/>
		</g>
	</g>
	<g class="st2">
		<g>
			<rect x="16.1" y="78.7" class="st1" width="117" height="1.2"/>
		</g>
	</g>
	<g class="st2">
		<g>
			<rect x="16.1" y="72.7" class="st1" width="116.8" height="1.2"/>
		</g>
	</g>
	<g class="st2">
		<g>
			<rect x="60.8" y="18.9" class="st1" width="6" height="118.2"/>
		</g>
	</g>
	<g class="st2">
		<g>
			<path class="st1" d="M61,136.9v0.2h1.9C62.3,137.1,61.6,137,61,136.9z M16.3,18v18.5c12.7-10.3,29.5-16.1,47.1-16.4
				c18.5,0,36.2,6.2,49.2,17.2c13.1,11,20.4,25.9,20.4,41.4c0,15.4-7.3,30.3-20.3,41.2S82.3,137,63.9,137.1h71.6V18H16.3z"/>
		</g>
	</g>
</g>
</svg>
